<svg height="496pt" viewBox="0 0 496 496" width="496pt" xmlns="http://www.w3.org/2000/svg"><path d="m248 32h64v16h-64zm0 0"/><path d="m328 32h16v16h-16zm0 0"/><path d="m216 32h16v16h-16zm0 0"/><path d="m256 448h48v16h-48zm0 0"/><path d="m472 240c-2.816406 0-5.488281.574219-8 1.472656v-201.472656c0-22.054688-17.945312-40-40-40h-288c-22.054688 0-40 17.945312-40 40v104h72c4.40625 0 8 3.585938 8 8v64c0 4.414062-3.59375 8-8 8h-72v23.351562l-29.191406-23.351562h-42.808594c-4.40625 0-8-3.585938-8-8v-64c0-4.414062 3.59375-8 8-8h56v-16h-56c-13.230469 0-24 10.769531-24 24v64c0 13.230469 10.769531 24 24 24h37.191406l50.808594 40.648438v-40.648438h16v160h176.335938c1.480468 3.921875 3.519531 7.632812 6.136718 10.894531l4.078125 5.105469h-202.550781v-118.832031h-16v158.832031c0 22.054688 17.945312 40 40 40h328v-46.3125c0-4.75 1.390625-9.351562 4.03125-13.3125l21.25-31.871094c4.390625-6.59375 6.71875-14.265625 6.71875-22.183594v-118.320312c0-13.230469-10.769531-24-24-24zm-336-224h288c13.230469 0 24 10.769531 24 24v24h-336v-24c0-13.230469 10.769531-24 24-24zm-24 64h336v145.472656c-2.511719-.898437-5.183594-1.472656-8-1.472656s-5.488281.574219-8 1.472656v-129.472656h-304v32h-16zm32 160h24c13.230469 0 24-10.769531 24-24v-64c0-13.230469-10.769531-24-24-24h-24v-16h272v97.472656c-2.511719-.898437-5.183594-1.472656-8-1.472656s-5.488281.574219-8 1.472656v-41.472656c0-13.230469-10.769531-24-24-24s-24 10.769531-24 24v92.359375c-2.023438-.878906-4.121094-1.640625-6.296875-2.183594l-33.710937-8.433593v-3.832032c14.917968-10.40625 24.007812-27.597656 24.007812-45.910156v-13.984375c0-31.078125-24.351562-57.085937-54.28125-57.992187-15.421875-.367188-29.75 5.152343-40.710938 15.785156-10.96875 10.640625-17.007812 24.910156-17.007812 40.191406v16c0 18.304688 9.089844 35.496094 24 45.902344v3.839844l-33.703125 8.433593c-17.839844 4.464844-30.296875 20.417969-30.296875 38.808594v39.015625h108.167969l8.585937 48h-156.753906zm144 65.96875v4.4375c0 1.539062.136719 3.066406.40625 4.570312l.898438 5.023438h-89.304688v-23.015625c0-11.03125 7.480469-20.609375 18.175781-23.289063l45.824219-11.449218v-25.335938l-3.992188-2.308594c-12.34375-7.144531-20.007812-20.410156-20.007812-34.601562v-16c0-10.910156 4.320312-21.113281 12.152344-28.710938 7.832031-7.59375 18.046875-11.714843 29.085937-11.265624 21.371094.640624 38.761719 19.480468 38.761719 41.992187v13.984375c0 14.199219-7.671875 27.464844-20.023438 34.617188l-4 2.3125.023438 25.316406 45.808594 11.449218c3.832031.96875 7.289062 2.855469 10.183594 5.457032v61.960937c-1.984376-1.648437-3.457032-3.921875-4.121094-6.570312l-8.71875-34.863281c-2.878906-11.589844-13.25-19.679688-25.183594-19.679688-14.320312 0-25.96875 11.648438-25.96875 25.96875zm-152 174.03125c-13.230469 0-24-10.769531-24-24v-24h215.351562l3.382813 4.230469c3.402344 4.242187 5.265625 9.570312 5.265625 14.992187v28.777344zm344-97.6875c0 4.75-1.390625 9.351562-4.03125 13.3125l-21.25 31.871094c-4.390625 6.601562-6.71875 14.273437-6.71875 22.191406v30.3125h-96v-28.777344c0-9.054687-3.113281-17.925781-8.769531-24.992187l-20.269531-25.335938c-2.320313-2.886719-3.953126-6.335937-4.671876-9.6875l-14.128906-79.046875c-.113281-.585937-.160156-1.167968-.160156-1.753906v-4.4375c0-5.496094 4.472656-9.96875 9.96875-9.96875 4.582031 0 8.558594 3.105469 9.671875 7.542969l8.71875 34.863281c3.167969 12.722656 14.535156 21.59375 27.640625 21.59375h8v-192c0-4.414062 3.59375-8 8-8s8 3.585938 8 8v160h16v-96c0-4.414062 3.59375-8 8-8s8 3.585938 8 8v96h16v-80c0-4.414062 3.59375-8 8-8s8 3.585938 8 8v80h16v-64c0-4.414062 3.59375-8 8-8s8 3.585938 8 8zm0 0"/><path d="m32 160h16v16h-16zm0 0"/><path d="m64 160h96v16h-96zm0 0"/><path d="m32 192h128v16h-128zm0 0"/><path d="m160 352h16v16h-16zm0 0"/><path d="m192 352h88v16h-88zm0 0"/></svg>