<svg id="writer" enable-background="new 0 0 300 300" height="512" viewBox="0 0 300 300" width="512" xmlns="http://www.w3.org/2000/svg"><path d="m268 147.265h-48v-11.848c0-.312-.11-.588-.177-.879 1.097-1.693 1.829-3.573 2.068-5.515.399-3.244-.351-6.386-1.951-9.019.008-.104.06-.193.06-.299v-12.9c0-34.121-25.996-62.004-59.184-63.477-20.086-.887-39.617 8.121-51.949 24.121-4.77 6.189-8.262 13.717-10.375 22.371-1.652 6.759-2.492 11.955-2.492 15.445v14.754c0 .012.007.021.007.033-1.364 2.271-2.095 4.927-1.995 7.719.078 2.254.82 4.449 2.045 6.424-.007.097-.056.18-.056.279v70.609c-2.987 3.05-5.489 6.523-7.416 10.343-.198-.03-.377-.118-.584-.118h-13.076c-1.275-7.245-3.009-13.968-4.987-20.088 2.395-10.385 9.452-53.617-33.505-71.515-1.055-.445-2.246-.408-3.273.086s-1.797 1.404-2.109 2.502c-.159.55-15.052 54.645 31.852 73.275 1.516 4.889 2.849 10.155 3.895 15.741h-14.798c-2.211 0-4 1.791-4 4v12.105c-6.777.996-12 6.852-12 13.902v21.949c0 2.209 1.789 4 4 4h60 132c2.211 0 4-1.791 4-4v-32.902c0-3.814-.562-7.531-1.535-11.098h33.535c2.211 0 4-1.791 4-4v-16-52c0-2.209-1.789-4-4-4zm-230.293-14.17c23 11.699 26.805 32.372 26.312 46.641-6.211-13.935-12.385-22.294-12.823-22.876-1.328-1.766-3.836-2.115-5.594-.793-1.766 1.326-2.125 3.832-.801 5.6.114.152 7.681 10.435 14.335 27.215-25.988-14.78-23.537-44.344-21.429-55.787zm226.293 22.17v44h-44v-44zm-106.02 83.437c.604.355 1.292.562 2.016.563h.004c.724 0 1.414-.207 2.02-.563 1.754.78 2.988 2.524 2.988 4.563 0 2.76-2.246 5.006-5.008 5.006s-5.008-2.246-5.008-5.006c0-2.039 1.235-3.783 2.988-4.563zm-20.914-46.62 4.233-1.924c2.823 7.626 10.105 13.107 18.701 13.107 8.595 0 15.877-5.479 18.7-13.105l4.351 1.978-23.04 35.731zm-8.132-5.272c-.145.093-.226.236-.354.343l-20.458 9.299c-1.44.654-2.786 1.449-4.121 2.256v-58.114c1.355.471 2.733.713 4.152.672 4.588 16.762 16.297 30.648 31.848 38.076v2.619l-9.407 4.276c-.575.072-1.142.239-1.66.573zm85.019-58.764c-.203 1.625-1.324 3.221-3.008 4.27-1.68 1.049-3.109 1.217-4.926.572-1.086-.385-2.273-.283-3.281.277-1 .559-1.715 1.521-1.961 2.643-3.895 17.883-17.113 32.492-34.492 38.127l-1.777.574c-4.961 1.609-10.035 1.676-14.68.182-17.691-5.695-31-20.561-34.738-38.791-.23-1.123-.93-2.092-1.922-2.664-.613-.354-1.305-.533-1.996-.533-.43 0-.859.068-1.273.209-1.594.527-2.969.598-4.922-.717-1.773-1.195-2.91-3-2.973-4.707-.082-2.344 1.172-4.477 3.227-5.545 3.609-.707 19.02-4.777 23.344-22.998 4.465 4.889 11.07 9.713 19.438 14.086 19.273 10.078 46.949 17.096 63.891 9.68 1.506 1.29 2.303 3.271 2.049 5.335zm-65.953 54.406c2.838.849 5.771 1.314 8.75 1.314 3.395 0 6.836-.549 10.223-1.648l1.777-.574c1.116-.362 2.165-.859 3.25-1.283v3.004c0 6.617-5.383 12-12 12s-12-5.383-12-12zm32-.489v-4.596c0-.297-.108-.559-.169-.838 13.38-7.661 23.508-20.265 27.822-35.271 1.456.05 2.913-.198 4.348-.676v55.939c-.042-.019-.079-.047-.121-.066zm-73.734-90.243c1.844-7.564 4.852-14.088 8.938-19.389 10.742-13.936 27.645-21.789 45.262-21.012 28.897 1.284 51.534 25.655 51.534 55.485v7.358c-.619.018-1.232.174-1.789.48-13.34 7.248-40.09.926-58.496-8.701-12.746-6.662-21.066-14.455-21.711-20.334-.242-2.162-2.625-3.719-4.703-3.514-2.145.186-3.754 2.029-3.652 4.176 1.114 23.172-14.691 27.225-17.648 27.778v-8.782c-.001-2.77.804-7.578 2.265-13.545zm-62.266 153.596c0-3.336 2.715-6.051 6.051-6.051h1.949 20c2.211 0 4-1.791 4-4s-1.789-4-4-4h-16v-7.957h28v11.957c0 2.209 1.789 4 4 4h1.949c3.336 0 6.051 2.715 6.051 6.051v17.949h-52zm184 17.949h-16v-24c0-2.209-1.789-4-4-4s-4 1.791-4 4v24h-84v-24c0-2.209-1.789-4-4-4s-4 1.791-4 4v24h-8v-17.949c0-6.976-5.119-12.766-11.792-13.852 1.028-12.066 8.295-22.76 19.226-27.728l18.275-8.308 23.567 36.76c-3.75 2.284-6.284 6.374-6.284 11.077 0 7.172 5.836 13.006 13.008 13.006s13.008-5.834 13.008-13.006c0-4.697-2.526-8.782-6.268-11.068l23.675-36.711 18.151 8.252c11.805 5.363 19.434 17.384 19.434 30.624zm-1.897-56h37.897v8h-32c-.215 0-.399.09-.605.122-1.467-2.9-3.203-5.649-5.292-8.122z"/><path d="m228 171.265h16c2.211 0 4-1.791 4-4s-1.789-4-4-4h-16c-2.211 0-4 1.791-4 4s1.789 4 4 4z"/><path d="m228 183.265h24c2.211 0 4-1.791 4-4s-1.789-4-4-4h-24c-2.211 0-4 1.791-4 4s1.789 4 4 4z"/><path d="m252 187.265h-24c-2.211 0-4 1.791-4 4s1.789 4 4 4h24c2.211 0 4-1.791 4-4s-1.789-4-4-4z"/><path d="m42 71.265c7.719 0 14-6.281 14-14s-6.281-14-14-14-14 6.281-14 14 6.281 14 14 14zm0-20c3.309 0 6 2.691 6 6s-2.691 6-6 6-6-2.691-6-6 2.691-6 6-6z"/><path d="m258 93.794c2.501 0 4.53-2.028 4.53-4.529 0-2.502-2.028-4.53-4.53-4.53s-4.53 2.028-4.53 4.53c0 2.501 2.029 4.529 4.53 4.529z"/><path d="m37.47 97.265c0 2.501 2.028 4.529 4.53 4.529s4.53-2.028 4.53-4.529c0-2.502-2.028-4.53-4.53-4.53s-4.53 2.028-4.53 4.53z"/><path d="m74 37.794c2.501 0 4.53-2.028 4.53-4.529 0-2.502-2.028-4.53-4.53-4.53s-4.53 2.028-4.53 4.53c0 2.501 2.029 4.529 4.53 4.529z"/><path d="m229.824 67.441c.781.781 1.805 1.172 2.828 1.172s2.047-.391 2.828-1.172l4.52-4.52 4.52 4.52c.781.781 1.805 1.172 2.828 1.172s2.047-.391 2.828-1.172c1.562-1.562 1.562-4.094 0-5.656l-4.52-4.52 4.52-4.52c1.562-1.562 1.562-4.094 0-5.656s-4.094-1.562-5.656 0l-4.52 4.52-4.52-4.52c-1.562-1.562-4.094-1.562-5.656 0s-1.562 4.094 0 5.656l4.52 4.52-4.52 4.52c-1.562 1.562-1.562 4.093 0 5.656z"/><path d="m61.824 127.441c.781.781 1.805 1.172 2.828 1.172s2.047-.391 2.828-1.172l4.52-4.52 4.52 4.52c.781.781 1.805 1.172 2.828 1.172s2.047-.391 2.828-1.172c1.562-1.562 1.562-4.094 0-5.656l-4.52-4.52 4.52-4.52c1.562-1.562 1.562-4.094 0-5.656s-4.094-1.562-5.656 0l-4.52 4.52-4.52-4.52c-1.562-1.562-4.094-1.562-5.656 0s-1.562 4.094 0 5.656l4.52 4.52-4.52 4.52c-1.562 1.562-1.562 4.093 0 5.656z"/><circle cx="178" cy="133.265" r="4"/><path d="m158.969 149.946c-1.422 1.568-4.02 1.721-5.609.322-1.66-1.455-4.188-1.293-5.645.367-1.461 1.66-1.297 4.188.363 5.645 2.191 1.924 5.008 2.984 7.922 2.984 3.383 0 6.629-1.439 8.898-3.951 1.484-1.639 1.355-4.168-.281-5.65-1.637-1.48-4.168-1.355-5.648.283z"/><circle cx="138" cy="133.265" r="4"/></svg>